<?xml version="1.0" encoding="utf-8"?>
<!-- Generator: Adobe Illustrator 19.0.0, SVG Export Plug-In . SVG Version: 6.00 Build 0)  -->
<svg version="1.1" id="Layer_1" xmlns="http://www.w3.org/2000/svg" xmlns:xlink="http://www.w3.org/1999/xlink" x="0px" y="0px"
	 width="768px" height="576px" viewBox="336 -227 768 576" style="enable-background:new 336 -227 768 576;" xml:space="preserve">
<image style="overflow:visible;enable-background:new    ;" width="1024" height="768" id="XMLID_2_" xlink:href="arjuna_3_base.png"  transform="matrix(0.75 0 0 0.75 336 -227)">
</image>
<image style="overflow:visible;enable-background:new    ;" width="256" height="256" id="XMLID_44_" xlink:href="arjuna_3_exp01.png"  transform="matrix(0.75 0 0 0.75 628.3333 -104)">
</image>
<image style="overflow:visible;enable-background:new    ;" width="256" height="256" id="XMLID_51_" xlink:href="arjuna_3_exp02.png"  transform="matrix(0.75 0 0 0.75 628.3333 -104)">
</image>
<image style="overflow:visible;" width="256" height="256" xlink:href="arjuna_3_exp03.png"  transform="matrix(0.75 0 0 0.75 628.3333 -104)">
</image>
<image style="overflow:visible;" width="256" height="256" xlink:href="arjuna_3_exp04.png"  transform="matrix(0.75 0 0 0.75 628.3333 -104)">
</image>
<image style="overflow:visible;" width="256" height="256" xlink:href="arjuna_3_exp05.png"  transform="matrix(0.75 0 0 0.75 628.3333 -104)">
</image>
<image style="overflow:visible;" width="256" height="256" xlink:href="arjuna_3_exp06.png"  transform="matrix(0.75 0 0 0.75 628.3333 -104)">
</image>
</svg>
